<svg width="31" height="38" viewBox="0 0 31 38" fill="none" xmlns="http://www.w3.org/2000/svg">
<mask id="mask0_1_883" style="mask-type:luminance" maskUnits="userSpaceOnUse" x="0" y="20" width="16" height="18">
<path d="M15.5463 20.3135H0V37.5H15.5463V20.3135Z" fill="white"/>
</mask>
<g mask="url(#mask0_1_883)">
<path d="M10.6269 29.9067V25.2953L9.98074 25.1275C9.2786 24.5984 8.32206 24.0414 7.02208 23.4894L1.00554 20.9307C1.00554 20.9307 0.445866 27.1318 10.0011 28.4697L10.0087 29.6371C10.0087 29.6371 10.0087 29.398 10.0087 29.4057C9.33711 29.3039 8.56883 29.2429 7.6886 29.2403L2.60063 29.2251C2.60063 29.2251 6.48021 34.6529 14.1681 31.2624C14.1681 31.2624 13.868 30.83 13.0412 30.3671" fill="#489981"/>
<path d="M10.6269 29.9067V25.2953L9.98074 25.1275C9.2786 24.5984 8.32206 24.0414 7.02208 23.4894L1.00554 20.9307C1.00554 20.9307 0.445866 27.1318 10.0011 28.4544L10.0087 29.3701C10.0087 29.3701 10.0087 29.398 10.0087 29.4057C9.33711 29.3039 8.56883 29.2429 7.6886 29.2403L2.60063 29.2251C2.60063 29.2251 6.48021 34.6529 14.1681 31.2624C14.1681 31.2624 13.868 30.83 13.0412 30.3671" fill="#489981"/>
<path d="M10.6269 29.9067V25.2953L9.98074 25.1275C9.2786 24.5984 8.32206 24.0414 7.02208 23.4894L1.00554 20.9307C1.00554 20.9307 0.445866 27.1318 10.0011 28.4544L10.0087 29.3701C10.0087 29.3701 10.0087 29.398 10.0087 29.4057C9.33711 29.3039 8.56883 29.2429 7.6886 29.2403L2.60063 29.2251C2.60063 29.2251 6.48021 34.6529 14.1681 31.2624C14.1681 31.2624 13.868 30.83 13.0412 30.3671" stroke="#489981" stroke-miterlimit="10"/>
<path d="M11.1555 32.843C10.2702 32.9956 6.59161 34.6591 6.59161 34.6591C6.59161 34.6591 6.9376 35.0177 7.53289 35.3458C7.79747 35.4704 8.40802 35.8443 9.6673 35.8164C9.90898 35.8011 11.5651 35.5111 12.4275 34.6565C13.0864 33.8807 13.1068 32.843 13.1068 32.843C13.1068 32.843 12.2927 32.5327 11.1555 32.843Z" fill="#489981" stroke="#489981" stroke-miterlimit="10"/>
</g>
<path d="M29 5.56641H10.584V31.7265H29V5.56641Z" stroke="#489981" stroke-width="3" stroke-linecap="round" stroke-linejoin="round"/>
<path d="M17.4299 35.8171L10.584 31.7272V5.56709L17.4299 1.5V35.8171Z" fill="#489981" stroke="#489981" stroke-width="3" stroke-linecap="round" stroke-linejoin="round"/>
<path d="M15.5468 19.804C16.1803 19.804 16.6939 19.2904 16.6939 18.6569C16.6939 18.0234 16.1803 17.5098 15.5468 17.5098C14.9132 17.5098 14.3997 18.0234 14.3997 18.6569C14.3997 19.2904 14.9132 19.804 15.5468 19.804Z" fill="white"/>
</svg>
