<svg width="132" height="24" viewBox="0 0 132 24" fill="none" xmlns="http://www.w3.org/2000/svg">
<path d="M88.7339 8.78418C89.3924 8.78418 89.791 8.9483 90.0509 9.27508C90.2568 9.52053 90.3385 9.86184 90.3385 10.2583C90.3385 10.3818 90.3254 10.5038 90.3108 10.6403C89.7209 14.7897 86.8386 17.9022 82.2815 19.022C82.1997 19.0496 82.1165 19.0626 82.0347 19.0626C81.7734 19.0626 81.5952 18.9261 81.5135 18.6807C81.5003 18.6124 81.4857 18.5311 81.4857 18.4628C81.4857 18.1898 81.6507 17.9719 81.9252 17.8891C85.8778 16.8521 88.5674 14.2713 89.02 10.5996C89.0332 10.5314 89.0332 10.4631 89.0332 10.3949C89.0332 10.0405 88.855 9.94463 88.4287 9.94463H80.4271C80.1117 9.94463 79.9336 9.69918 79.9336 9.35787C79.9336 9.01656 80.1263 8.78418 80.4271 8.78418H88.7309H88.7339Z" fill="#489981"/>
<path d="M82.0367 19.2076C81.7155 19.2076 81.4804 19.0362 81.3767 18.7254L81.3723 18.708C81.3519 18.6063 81.3417 18.5264 81.3417 18.4611C81.3417 18.1212 81.5505 17.8482 81.8849 17.7479C85.8988 16.695 88.4453 14.0821 88.8775 10.579C88.8906 10.5137 88.8906 10.4541 88.8906 10.3917C88.8906 10.1753 88.8497 10.0867 88.4321 10.0867H80.4306C80.048 10.0867 79.791 9.79183 79.791 9.35467C79.791 8.9175 80.0597 8.63574 80.4306 8.63574H88.7344C89.4148 8.63574 89.8689 8.81003 90.1668 9.18184C90.3785 9.43455 90.4865 9.79619 90.4865 10.2551C90.4865 10.3742 90.4749 10.4904 90.4617 10.6153L90.4573 10.6516C89.847 14.9405 86.8815 18.0399 82.3185 19.1596C82.2324 19.1887 82.1331 19.2047 82.0367 19.2047V19.2076ZM81.6571 18.6426C81.7213 18.8271 81.8454 18.9171 82.0367 18.9171C82.1024 18.9171 82.171 18.9055 82.2382 18.8837C86.6902 17.7886 89.5769 14.7778 90.1682 10.6197L90.1711 10.5892C90.1828 10.4672 90.1945 10.3626 90.1945 10.258C90.1945 9.86881 90.1084 9.56962 89.9404 9.36774C89.6981 9.06274 89.3272 8.92912 88.7358 8.92912H80.432C80.175 8.92912 80.0845 9.16005 80.0845 9.35757C80.0845 9.46069 80.1093 9.79909 80.432 9.79909H88.4336C88.8234 9.79909 89.1841 9.87171 89.1841 10.3946C89.1841 10.4686 89.1841 10.5456 89.168 10.6284C88.7227 14.2448 86.0974 16.9462 81.9666 18.0297C81.7622 18.0907 81.6366 18.2534 81.6366 18.4625C81.6366 18.5061 81.6439 18.5671 81.66 18.6426H81.6571Z" fill="#489981"/>
<path d="M104.714 14.3261C104.418 14.3261 104.252 14.1083 104.252 13.7394C104.252 13.3705 104.418 13.125 104.725 13.125H113.704C114.011 13.125 114.177 13.385 114.177 13.7394C114.177 14.0937 114.011 14.3261 113.716 14.3261H104.713H104.714Z" fill="#489981"/>
<path d="M113.716 14.4711H104.713C104.35 14.4711 104.125 14.1908 104.125 13.7391C104.125 13.2874 104.365 12.9795 104.724 12.9795H113.703C114.062 12.9795 114.302 13.2845 114.302 13.7391C114.302 14.1937 114.077 14.4711 113.714 14.4711H113.716ZM104.724 13.27C104.411 13.27 104.377 13.5982 104.377 13.7391C104.377 14.0325 104.49 14.1806 104.713 14.1806H113.716C113.938 14.1806 114.052 14.0325 114.052 13.7391C114.052 13.5982 114.018 13.27 113.704 13.27H104.725H104.724Z" fill="#489981"/>
<path d="M123.992 16.7792C122.631 16.9608 121.107 17.1118 119.724 17.1975C119.639 17.2033 119.555 17.1874 119.48 17.151C119.119 16.9724 118.998 16.6035 119.143 16.2956C120.271 13.889 121.307 11.1644 121.986 8.81441C122.008 8.72872 122.019 8.65465 122.019 8.58784C122.019 8.22184 121.771 7.94153 121.377 7.8602C121.302 7.84277 121.221 7.84277 121.155 7.84277C120.788 7.84277 120.555 8.03449 120.439 8.42808C119.636 11.3183 118.484 14.3465 117.195 16.9564C117.087 17.1743 116.852 17.3166 116.598 17.3166C116.427 17.3166 116.25 17.3166 116.085 17.3297C115.685 17.3297 115.406 17.6361 115.406 18.0762V18.1503C115.424 18.5598 115.73 18.8358 116.17 18.8358H116.233C118.966 18.7356 121.918 18.48 124.369 18.1328C124.691 18.0878 124.869 17.7509 124.722 17.4735L124.482 17.0247C124.39 16.8504 124.193 16.7531 123.992 16.7807V16.7792Z" fill="#489981"/>
<path d="M127.389 18.165C126.549 16.2057 125.244 13.8805 123.979 12.094C123.809 11.8689 123.566 11.744 123.316 11.7513C123.192 11.7542 123.095 11.7774 122.982 11.8283C122.763 11.9357 122.632 12.1623 122.639 12.4208C122.642 12.5414 122.68 12.6619 122.754 12.7825C123.356 13.6728 124.011 14.7664 124.644 15.9385C124.644 15.9457 124.644 15.953 124.644 15.9603L125.73 18.2565C125.743 18.2782 125.758 18.3 125.768 18.3247C125.872 18.5527 125.951 18.7401 126.024 18.9362C126.133 19.2063 126.368 19.3632 126.653 19.3545C126.777 19.3516 126.875 19.3283 126.977 19.2818C127.317 19.1424 127.5 18.8897 127.491 18.5716C127.488 18.4482 127.456 18.3233 127.387 18.1664L127.389 18.165Z" fill="#489981"/>
<path d="M97.3574 13.7272C97.1705 13.5849 96.9062 13.6052 96.7456 13.7766C95.6782 14.9094 94.3553 15.8404 93.0748 16.34C92.8207 16.4315 92.6557 16.661 92.647 16.9384C92.6426 17.0502 92.6689 17.1679 92.7156 17.271C92.812 17.5179 93.0266 17.6704 93.2894 17.6791C93.4004 17.6835 93.5026 17.6646 93.6106 17.6225C95.0241 17.0677 96.5543 15.9697 97.7063 14.6858L97.756 14.6277C97.9254 14.4331 97.8947 14.1368 97.6888 13.9814L97.3559 13.7272H97.3574Z" fill="#489981"/>
<path d="M101.431 11.819H100.029C99.7312 11.819 99.483 11.5765 99.4772 11.2802L99.464 10.599V10.5714C99.464 10.2388 99.1954 10.0166 98.7967 10.0166C98.3981 10.0166 98.1017 10.2562 98.1017 10.6005L98.1105 11.4661C98.1105 11.5605 98.0754 11.6491 98.0083 11.7159C97.9411 11.7827 97.8535 11.8205 97.7586 11.8205L93.2511 11.8451C92.9226 11.8451 92.6934 12.1124 92.6934 12.4958C92.6934 12.8589 92.9328 13.1319 93.2511 13.1319L96.7803 13.1218C96.8577 13.1218 97.3045 13.1334 97.6038 13.1392C97.7659 13.1421 97.9075 13.2467 97.9615 13.3992L98.0535 13.6621C98.1587 14.0092 98.1528 14.1791 98.1645 14.519C98.1689 14.6322 98.1543 14.7441 98.1543 14.8588L98.1952 19.0765C98.1952 19.4382 98.4741 19.672 98.9033 19.672C99.3049 19.672 99.5852 19.4207 99.5852 19.0605L99.4976 13.4602C99.4976 13.3658 99.5327 13.2757 99.5984 13.2089C99.6655 13.1407 99.7531 13.1044 99.8495 13.1029L101.431 13.0927C101.767 13.0927 101.975 12.8487 101.975 12.4566C101.975 12.0644 101.752 11.8205 101.431 11.8205V11.819Z" fill="#489981"/>
<path d="M7.59392 13.0425L3.55039 19.7273C3.39959 19.9766 3.43458 20.2729 3.62853 20.389L5.30989 21.3961C5.50385 21.5122 5.78333 21.4043 5.93413 21.155L9.97766 14.4702C10.1285 14.2209 10.0935 13.9246 9.89952 13.8085L8.21815 12.8014C8.0242 12.6853 7.74472 12.7932 7.59392 13.0425Z" fill="#489981"/>
<path d="M8.06801 13.0505C8.06449 13.0484 8.04392 13.0377 7.99651 13.056C7.94871 13.0745 7.88981 13.1186 7.84488 13.1929L3.80164 19.8774C3.75672 19.9517 3.74511 20.0242 3.75109 20.0748C3.75702 20.1251 3.77616 20.1382 3.77968 20.1403L5.46088 21.1472C5.4644 21.1494 5.48488 21.16 5.53225 21.1417C5.58006 21.1232 5.63907 21.0792 5.68401 21.0049L9.72724 14.3203C9.77218 14.2461 9.78366 14.1736 9.77768 14.1229C9.77174 14.0726 9.75273 14.0596 9.74921 14.0575L8.06801 13.0505ZM10.0501 13.56C10.4389 13.7928 10.4239 14.2975 10.2285 14.6206L6.18522 21.3051C5.98981 21.6281 5.54867 21.8776 5.15995 21.6448L3.47875 20.6378C3.09003 20.405 3.10504 19.9003 3.30043 19.5772L7.34367 12.8927C7.53907 12.5696 7.98021 12.3202 8.36894 12.553L10.0501 13.56Z" fill="#489981"/>
<path d="M12.0425 9.59607C12.2155 9.69969 12.2715 9.9229 12.1677 10.0946L9.92899 13.7959C9.82512 13.9676 9.60068 14.0228 9.4277 13.9192L8.25505 13.2168C8.08207 13.1132 8.02604 12.89 8.12989 12.7183L10.3686 9.01699C10.4724 8.84526 10.6969 8.79005 10.8699 8.89367L12.0425 9.59607ZM8.94441 12.7826L9.4906 13.1097L11.3532 10.0303L10.807 9.70315L8.94441 12.7826Z" fill="#489981"/>
<path d="M14.6047 10.6051C14.8122 10.7294 14.8795 10.9972 14.7549 11.2033C14.6302 11.4093 14.361 11.4755 14.1535 11.3512L12.8944 10.597C12.6869 10.4727 12.6197 10.2049 12.7442 9.99883C12.8689 9.7928 13.1381 9.72656 13.3456 9.85088L14.6047 10.6051ZM16.084 8.15902C16.2916 8.28334 16.3588 8.55114 16.2342 8.75717C16.1096 8.9632 15.8403 9.02944 15.6328 8.90512L14.3738 8.15089C14.1662 8.02657 14.099 7.75877 14.2236 7.55274C14.3482 7.34671 14.6175 7.28047 14.825 7.40479L16.084 8.15902Z" fill="#489981"/>
<path d="M15.644 11.4857L16.9747 9.28558L16.4671 8.98154L15.1365 11.1816L15.644 11.4857ZM17.6737 8.68782C17.9519 8.85452 18.0421 9.21362 17.875 9.48989L16.2469 12.1818C16.0798 12.4581 15.7188 12.5469 15.4405 12.3802L14.4375 11.7794C14.1592 11.6127 14.0691 11.2536 14.2361 10.9773L15.8642 8.28538C16.0313 8.00913 16.3924 7.9203 16.6706 8.08699L17.6737 8.68782Z" fill="#489981"/>
<path d="M7.11036 4.97743C8.33904 4.35891 9.87715 4.23522 11.1402 4.956L14.8722 7.08597C14.9769 7.14236 15.0586 7.24034 15.0897 7.36436C15.1483 7.59815 15.0055 7.83455 14.7709 7.89238L14.7703 7.89255C14.6608 7.91951 14.5451 7.90342 14.4471 7.84753L10.706 5.71261C9.75607 5.17047 8.53756 5.23704 7.50669 5.756L7.50652 5.75589C7.42447 5.79726 7.34354 5.84083 7.26327 5.88607C7.28624 5.88941 7.30925 5.8928 7.33209 5.89647C7.88176 5.98483 8.54011 6.20646 8.94736 6.75691L8.94722 6.75694C9.10079 6.96445 9.18376 7.15508 9.22464 7.33687C9.26207 7.50336 9.26044 7.66339 9.2633 7.72325C9.26501 7.75904 9.26727 7.77351 9.26867 7.77986C9.26955 7.7811 9.27121 7.78338 9.27403 7.78659C9.27861 7.79181 9.28642 7.79997 9.29905 7.81086C9.325 7.83323 9.36811 7.86457 9.43821 7.90458L13.0562 9.96933C13.2661 10.0892 13.3392 10.3556 13.2194 10.5645C13.0995 10.7734 12.832 10.8457 12.622 10.7258L9.0041 8.66119C8.79778 8.54345 8.63147 8.41034 8.52349 8.23654C8.41013 8.0541 8.39419 7.87861 8.38866 7.76281C8.38264 7.63694 8.38589 7.59539 8.37021 7.52566C8.3595 7.47804 8.33663 7.41054 8.27283 7.31571L8.24284 7.27335C8.03877 6.99753 7.6599 6.83232 7.19441 6.75749C6.98122 6.72326 6.76165 6.70687 6.54748 6.71094L6.54745 6.7108C6.49389 6.71188 6.42173 6.70995 6.36176 6.70858C6.29495 6.70704 6.22719 6.70581 6.16256 6.7069C6.09616 6.70802 6.04495 6.71149 6.01025 6.71664C6.0078 6.71701 6.00559 6.71736 6.00362 6.71769C5.81343 6.81733 5.57356 6.76464 5.44434 6.5856C5.30317 6.38995 5.34763 6.11772 5.54361 5.97736C5.5438 5.97722 5.54404 5.97705 5.54423 5.97691C6.02506 5.6338 6.54027 5.26474 7.11009 4.9775L7.11036 4.97743Z" fill="#489981"/>
<path d="M22.4726 8.71869C22.4726 8.49502 22.5471 8.30185 22.696 8.13483C22.8639 7.96926 23.064 7.88647 23.2961 7.88647C23.5283 7.88647 23.724 7.96926 23.8831 8.13483C24.0408 8.3004 24.1197 8.49502 24.1197 8.71869V14.3655C24.1197 14.5892 24.0393 14.7853 23.8831 14.9494C23.7254 15.1251 23.5268 15.2123 23.2903 15.2123C23.0538 15.2123 22.8552 15.1251 22.6975 14.9494C22.5398 14.7838 22.4609 14.595 22.4609 14.38V14.335C22.4697 14.2087 22.4755 14.0968 22.4755 13.9981V8.71869H22.4741H22.4726Z" fill="#489981"/>
<path d="M29.4896 8.58624C29.4896 8.37274 29.5641 8.18248 29.713 8.01691C29.8707 7.85134 30.0693 7.76855 30.3058 7.76855C30.5424 7.76855 30.7453 7.85134 30.9147 8.01691C31.0622 8.18248 31.1381 8.3771 31.1381 8.60077V11.796C31.1381 12.9143 31.0739 13.8482 30.9454 14.5976C30.8169 15.347 30.6388 15.9454 30.4124 16.3913C30.1846 16.8401 29.8678 17.2903 29.4633 17.7478C28.8296 18.4769 27.9068 19.0956 26.6891 19.6011C26.5314 19.6679 26.3678 19.7042 26.1985 19.7042C26.1006 19.7042 25.9999 19.6955 25.9021 19.6751C25.6349 19.6083 25.4027 19.4761 25.2041 19.2801C25.1063 19.1726 25.0566 19.0506 25.0566 18.9141C25.0566 18.8647 25.061 18.811 25.0727 18.7529C25.1326 18.5582 25.2596 18.4319 25.4582 18.3738C26.654 17.9744 27.5841 17.4051 28.2456 16.6673C28.7581 16.0936 29.0998 15.4632 29.2618 14.7777C29.4254 14.0922 29.5071 13.0683 29.5071 11.7059V9.13814L29.4925 8.58334H29.4911L29.4896 8.58624Z" fill="#489981"/>
<path d="M68.0273 8.79217C68.0273 8.56851 68.1018 8.37534 68.2507 8.20832C68.4186 8.04275 68.6187 7.95996 68.8508 7.95996C69.083 7.95996 69.2786 8.04275 69.4378 8.20832C69.5955 8.37389 69.6743 8.56851 69.6743 8.79217V14.439C69.6743 14.6627 69.594 14.8587 69.4378 15.0229C69.2801 15.1986 69.0815 15.2857 68.845 15.2857C68.6084 15.2857 68.4099 15.1986 68.2522 15.0229C68.0945 14.8573 68.0156 14.6685 68.0156 14.4535V14.4085C68.0244 14.2821 68.0302 14.1703 68.0302 14.0716V8.79217H68.0288H68.0273Z" fill="#489981"/>
<path d="M75.0424 8.66046C75.0424 8.44696 75.1168 8.2567 75.2658 8.09113C75.4235 7.92556 75.622 7.84277 75.8586 7.84277C76.0951 7.84277 76.2981 7.92556 76.4675 8.09113C76.6149 8.2567 76.6909 8.45132 76.6909 8.67498V11.8702C76.6909 12.9885 76.6266 13.9224 76.4981 14.6718C76.3696 15.4213 76.1915 16.0196 75.9652 16.4655C75.7374 16.9143 75.4205 17.3645 75.0161 17.822C74.3824 18.5511 73.4596 19.1698 72.2418 19.6753C72.0841 19.7421 71.9206 19.7784 71.7512 19.7784C71.6534 19.7784 71.5526 19.7697 71.4548 19.7493C71.1876 19.6825 70.9554 19.5504 70.7568 19.3543C70.659 19.2468 70.6094 19.1248 70.6094 18.9883C70.6094 18.9389 70.6138 18.8852 70.6254 18.8271C70.6853 18.6325 70.8123 18.5061 71.0109 18.448C72.2068 18.0486 73.1369 17.4793 73.7983 16.7415C74.3108 16.1678 74.6525 15.5375 74.8146 14.8519C74.9781 14.1664 75.0599 13.1425 75.0599 11.7802V9.21236L75.0453 8.65756H75.0438L75.0424 8.66046Z" fill="#489981"/>
<path d="M38.5836 11.7649L38.2376 11.4687C38.0288 11.29 37.7046 11.3118 37.525 11.5166C37.3644 11.6996 37.1775 11.916 36.9614 12.1644C36.5292 12.6625 36.1569 13.0852 35.8444 13.4308C35.5421 13.7649 35.2925 14.0307 35.0953 14.2267C35.0822 14.2412 35.0705 14.2514 35.0545 14.2616C35.0092 14.2979 34.9493 14.3502 34.8763 14.4199C34.7902 14.5012 34.7245 14.5637 34.6763 14.6087C34.4762 14.7888 34.377 15.0096 34.377 15.2681C34.377 15.5019 34.4675 15.7038 34.6471 15.8737C34.7989 16.0175 34.9844 16.0887 35.2019 16.0887H35.2881C35.5348 16.0698 35.7334 15.9681 35.8853 15.7793C35.9802 15.6442 36.0853 15.5063 36.1992 15.361C36.2562 15.2797 36.6124 14.8411 37.2666 14.0408C37.9222 13.2406 38.3777 12.693 38.6333 12.3967C38.6333 12.3967 38.6347 12.3938 38.6362 12.3924C38.7939 12.1992 38.7734 11.9247 38.5822 11.7606V11.7635L38.5836 11.7649Z" fill="#489981"/>
<path d="M47.0636 16.8988C46.4678 16.2336 45.4326 15.124 43.9637 13.5699C42.5225 12.0449 41.4741 11.0181 40.8185 10.4895C40.2622 10.0494 39.7906 9.83008 39.4022 9.83008H39.3423C39.1759 9.8417 39.008 9.89253 38.8386 9.98548C38.5407 10.1452 38.4925 10.5505 38.7451 10.7741L39.8154 11.7254C39.8359 11.7443 39.8563 11.7574 39.8797 11.7734C39.96 11.8227 40.0432 11.8837 40.1337 11.9578C40.709 12.4473 41.6786 13.4538 43.0409 14.9787C44.2528 16.357 45.1829 17.4376 45.8283 18.2204C45.9787 18.4165 46.1758 18.5182 46.424 18.5284H46.4532C46.681 18.5284 46.8767 18.4412 47.0358 18.264C47.2242 18.0694 47.3191 17.8385 47.3191 17.5756C47.3191 17.3127 47.2344 17.0963 47.0665 16.9002H47.0636V16.8988Z" fill="#489981"/>
<path d="M43.5785 10.5818C44.0954 10.5818 44.5145 10.1694 44.5145 9.66104C44.5145 9.15271 44.0954 8.74023 43.5785 8.74023C43.0616 8.74023 42.6426 9.15271 42.6426 9.66104C42.6426 10.1694 43.0616 10.5818 43.5785 10.5818Z" fill="#489981"/>
<path d="M45.9203 10.5818C46.4372 10.5818 46.8563 10.1694 46.8563 9.66104C46.8563 9.15271 46.4372 8.74023 45.9203 8.74023C45.4034 8.74023 44.9844 9.15271 44.9844 9.66104C44.9844 10.1694 45.4034 10.5818 45.9203 10.5818Z" fill="#489981"/>
<path d="M58.0627 6.2141C57.9123 6.08048 57.7312 6.01367 57.518 6.01367C57.3049 6.01367 57.1238 6.08048 56.9734 6.2141C56.823 6.34772 56.7442 6.51329 56.7339 6.71081C56.7223 7.44862 56.7004 8.08912 56.6653 8.63376C56.6405 9.0288 56.9866 9.3614 57.4246 9.3614C57.8247 9.3614 58.1547 9.08544 58.1839 8.72526C58.2379 8.05862 58.2686 7.3789 58.2686 6.68322C58.2686 6.50312 58.1985 6.34772 58.0598 6.2141H58.0612H58.0627Z" fill="#489981"/>
<path d="M63.7292 17.929C62.656 17.3713 61.7258 16.6132 60.9418 15.6561C59.9985 14.5014 59.2524 13.1478 58.7063 11.5938C58.6975 11.556 58.7019 11.5197 58.7223 11.4907C58.7428 11.4616 58.772 11.4456 58.8114 11.4456H63.5072C63.7058 11.4456 63.8766 11.3745 64.0226 11.2321C64.1657 11.0913 64.2388 10.9228 64.2388 10.7253C64.2388 10.5277 64.1672 10.3622 64.0226 10.2184C63.8796 10.0775 63.7073 10.0049 63.5072 10.0049H51.6275C51.4289 10.0049 51.2581 10.076 51.1121 10.2184C50.969 10.3593 50.8945 10.5277 50.8945 10.7253C50.8945 10.9228 50.9661 11.0898 51.1121 11.2321C51.2552 11.373 51.4275 11.4456 51.6275 11.4456H56.1598C56.1992 11.4456 56.2313 11.4616 56.2562 11.4907C56.281 11.5197 56.2883 11.5546 56.2781 11.5938C55.5626 14.5857 53.9083 16.7468 51.3136 18.0757C51.1544 18.1629 51.061 18.3008 51.0289 18.4853V18.5724C51.0289 18.7206 51.0829 18.8455 51.1924 18.953C51.3516 19.1302 51.5399 19.2463 51.7589 19.3044C51.8276 19.3248 51.902 19.3335 51.9823 19.3335C52.1211 19.3335 52.2554 19.3001 52.3853 19.2304C54.9479 17.823 56.6577 15.6866 57.5133 12.8225C57.5221 12.7934 57.5396 12.7775 57.5645 12.7775C57.5893 12.7775 57.6068 12.7862 57.6156 12.8065C58.7574 15.8086 60.4468 17.9436 62.6837 19.2144C62.8224 19.2812 62.9611 19.3175 63.1013 19.3175C63.1801 19.3175 63.2605 19.303 63.3408 19.2725C63.5598 19.2144 63.7481 19.0866 63.9073 18.892C64.0066 18.7642 64.0577 18.6276 64.0577 18.4809C64.0577 18.4432 64.0533 18.4025 64.0416 18.3647C64.0124 18.1701 63.9073 18.022 63.7277 17.9247V17.929H63.7292Z" fill="#489981"/>
<path d="M130.561 22.8941V6.52719C130.561 6.07217 130.55 5.69231 130.529 5.1507L130.529 5.14971C130.524 5.00519 130.469 4.92542 130.425 4.87923C130.4 4.85369 130.376 4.83625 130.361 4.82633C130.353 4.82152 130.348 4.8189 130.347 4.81838C130.348 4.8185 130.348 4.81888 130.349 4.81938C130.35 4.81979 130.351 4.82028 130.353 4.82094C130.354 4.82127 130.354 4.82167 130.355 4.82207C130.356 4.82228 130.356 4.82256 130.357 4.82278C130.357 4.82288 130.357 4.82296 130.358 4.82306L130.358 4.82335V4.82321C130.337 4.81431 130.317 4.80386 130.298 4.79186C130.212 4.7384 130.086 4.68895 129.916 4.63414C129.769 4.58666 129.558 4.52664 129.397 4.46437C128.782 4.22757 128.167 3.99044 127.553 3.75336L125.71 3.04263C125.101 2.80819 124.495 2.53632 123.902 2.27034C123.304 2.00259 122.72 1.74057 122.137 1.51607H122.137C121.87 1.41296 121.602 1.30985 121.335 1.20674C121.068 1.10362 120.801 1.00037 120.534 0.897255L120.533 0.896972C120.502 0.885213 120.44 0.871814 120.358 0.871442C120.283 0.871101 120.222 0.882092 120.187 0.893568L111.441 4.90405C111.222 5.0048 110.962 4.90926 110.86 4.69073C110.759 4.47221 110.855 4.2135 111.075 4.11276L119.841 0.0924921L119.871 0.0801526C120.029 0.0215253 120.204 -0.000698764 120.362 1.66846e-05C120.519 0.000732267 120.694 0.0243997 120.85 0.0849749C121.118 0.18809 121.385 0.291199 121.652 0.394314C121.919 0.497378 122.186 0.600447 122.453 0.703511H122.453C123.062 0.937959 123.668 1.20981 124.262 1.47579C124.859 1.74355 125.444 2.00542 126.026 2.22992C126.641 2.46672 127.256 2.70385 127.87 2.94093C128.485 3.17803 129.099 3.41514 129.713 3.6518L129.714 3.65194C129.846 3.7029 129.987 3.74096 130.187 3.80527C130.355 3.85964 130.559 3.93189 130.737 4.03816C130.741 4.04009 130.745 4.042 130.75 4.04426C130.771 4.05551 130.799 4.07094 130.831 4.09106C130.894 4.13106 130.976 4.19145 131.058 4.27701C131.227 4.4529 131.391 4.72865 131.405 5.11808L131.418 5.50174C131.43 5.86413 131.437 6.17351 131.437 6.52719V22.8941C131.437 23.4921 130.895 23.8714 130.368 23.8714H67.2115C66.9696 23.8714 66.7734 23.6764 66.7734 23.4357C66.7734 23.1951 66.9696 23 67.2115 23H130.368C130.441 23 130.496 22.9747 130.528 22.9471C130.559 22.9204 130.561 22.9004 130.561 22.8941Z" fill="#489981"/>
<path d="M130.274 22.0762C130.758 22.0762 131.151 22.4663 131.151 22.9476C131.151 23.4289 130.758 23.819 130.274 23.819H67.1964C66.7125 23.819 66.3203 23.4289 66.3203 22.9476C66.3203 22.4663 66.7125 22.0762 67.1964 22.0762H130.274Z" fill="#489981"/>
</svg>
